<?xml version="1.0" encoding="UTF-8"?>
<svg width="80px" height="80px" viewBox="0 0 80 80" version="1.1" xmlns="http://www.w3.org/2000/svg" xmlns:xlink="http://www.w3.org/1999/xlink">
    <!-- Generator: Sketch 51.2 (57519) - http://www.bohemiancoding.com/sketch -->
    <title>Internet&amp;Knowledge_Graph</title>
    <desc>Created with Sketch.</desc>
    <defs></defs>
    <g id="Internet&amp;Knowledge_Graph" stroke="none" stroke-width="1" fill="none" fill-rule="evenodd">
        <g id="Group-6">
            <rect id="Rectangle-Copy" fill-rule="nonzero" x="0" y="0" width="80" height="80"></rect>
            <g id="Group-2" transform="translate(16.000000, 23.000000)" fill="#00A99D">
                <path d="M39,14 C40.2343812,14 41.398432,14.2382789 42.4921875,14.7148438 C43.585943,15.1914086 44.5390584,15.8359334 45.3515625,16.6484375 C46.1640666,17.4609416 46.8085914,18.414057 47.2851562,19.5078125 C47.7617211,20.601568 48,21.7656188 48,23 C48,24.2343812 47.7617211,25.398432 47.2851562,26.4921875 C46.8085914,27.585943 46.1640666,28.5390584 45.3515625,29.3515625 C44.5390584,30.1640666 43.585943,30.8085914 42.4921875,31.2851562 C41.398432,31.7617211 40.2343812,32 39,32 C38.0624953,32 37.148442,31.8593764 36.2578125,31.578125 C35.367183,31.2968736 34.5468788,30.8828152 33.796875,30.3359375 C33.5468738,30.5859387 33.1289092,31.0195282 32.5429688,31.6367188 C31.9570283,32.2539093 31.2812538,32.9570273 30.515625,33.7460938 C29.7499962,34.5351602 28.9414105,35.3554645 28.0898438,36.2070312 C27.238277,37.058598 26.4375037,37.8398402 25.6875,38.5507812 C24.9374963,39.2617223 24.2734404,39.8476539 23.6953125,40.3085938 C23.1171846,40.7695336 22.7187511,41 22.5,41 C22.093748,41 21.742189,40.851564 21.4453125,40.5546875 C21.148436,40.257811 21,39.906252 21,39.5 C21,39.2812489 21.2304664,38.8828154 21.6914062,38.3046875 C22.1523461,37.7265596 22.7382777,37.0625038 23.4492188,36.3125 C24.1601598,35.5624962 24.941402,34.761723 25.7929688,33.9101562 C26.6445355,33.0585895 27.4648398,32.2500038 28.2539062,31.484375 C29.0429727,30.7187462 29.7460907,30.0429717 30.3632812,29.4570312 C30.9804718,28.8710908 31.4140612,28.4531262 31.6640625,28.203125 C31.1171848,27.4531212 30.7031264,26.632817 30.421875,25.7421875 C30.1406236,24.851558 30,23.9375047 30,23 C30,21.7656188 30.2382789,20.601568 30.7148438,19.5078125 C31.1914086,18.414057 31.8359334,17.4609416 32.6484375,16.6484375 C33.4609416,15.8359334 34.414057,15.1914086 35.5078125,14.7148438 C36.601568,14.2382789 37.7656188,14 39,14 Z M39,29 C39.8125041,29 40.5859338,28.8398454 41.3203125,28.5195312 C42.0546912,28.1992171 42.6914036,27.7695339 43.2304688,27.2304688 C43.7695339,26.6914036 44.1992171,26.0585974 44.5195312,25.3320312 C44.8398454,24.6054651 45,23.8281291 45,23 C45,22.1874959 44.8398454,21.4140662 44.5195312,20.6796875 C44.1992171,19.9453088 43.7695339,19.3085964 43.2304688,18.7695312 C42.6914036,18.2304661 42.0546912,17.8007829 41.3203125,17.4804688 C40.5859338,17.1601546 39.8125041,17 39,17 C38.1718709,17 37.3945349,17.1601546 36.6679688,17.4804688 C35.9414026,17.8007829 35.3085964,18.2304661 34.7695312,18.7695312 C34.2304661,19.3085964 33.8007829,19.9453088 33.4804688,20.6796875 C33.1601546,21.4140662 33,22.1874959 33,23 C33,23.8281291 33.1601546,24.6054651 33.4804688,25.3320312 C33.8007829,26.0585974 34.2304661,26.6914036 34.7695312,27.2304688 C35.3085964,27.7695339 35.9414026,28.1992171 36.6679688,28.5195312 C37.3945349,28.8398454 38.1718709,29 39,29 Z M6,26 L6,20 L0,20 L0,-7 L36,-7 L36,-1 L42,-1 L42,11.421875 C41.4999975,11.2968744 41.0000025,11.1953129 40.5,11.1171875 C39.9999975,11.0390621 39.5000025,11 39,11 L39,2 L9,2 L9,23 L27,23 C27,23.5000025 27.0390621,23.9999975 27.1171875,24.5 C27.1953129,25.0000025 27.2968744,25.4999975 27.421875,26 L6,26 Z M6,17 L6,-1 L33,-1 L33,-4 L3,-4 L3,17 L6,17 Z" id="î³"></path>
                <rect id="Rectangle-20" fill-rule="nonzero" x="9" y="6" width="30" height="3"></rect>
                <rect id="Rectangle-20-Copy" fill-rule="nonzero" x="3" y="0" width="3" height="3"></rect>
            </g>
        </g>
    </g>
</svg>