<?xml version="1.0" encoding="UTF-8"?>
<svg width="80px" height="80px" viewBox="0 0 80 80" version="1.1" xmlns="http://www.w3.org/2000/svg" xmlns:xlink="http://www.w3.org/1999/xlink">
    <!-- Generator: Sketch 51.2 (57519) - http://www.bohemiancoding.com/sketch -->
    <title>App_Usage</title>
    <desc>Created with Sketch.</desc>
    <defs></defs>
    <g id="App_Usage" stroke="none" stroke-width="1" fill="none" fill-rule="evenodd">
        <g id="Group-6">
            <rect id="Rectangle" fill-rule="nonzero" x="0" y="0" width="80" height="80"></rect>
            <g id="Group" transform="translate(16.000000, 12.000000)" fill="#0078D7">
                <path d="M30,21.2855991 C29.9968642,21.2856687 29.9937281,21.2857403 29.9905917,21.2858138 C28.9460303,21.3103004 27.9410319,21.5467181 27,21.9859468 L27,3 L3,3 L3,45 L7.14932012,45 C6.97643221,45.8164575 6.93799563,46.6546421 7.03203161,47.5024124 C7.05056518,47.6694997 7.0747126,47.8353931 7.10441303,48 L3,48 C2.57812289,48 2.1875018,47.9218758 1.828125,47.765625 C1.4687482,47.6093742 1.15234512,47.3945326 0.87890625,47.1210938 C0.605467383,46.8476549 0.390625781,46.5312518 0.234375,46.171875 C0.0781242188,45.8124982 0,45.4218771 0,45 L0,3 C0,2.57812289 0.0781242188,2.1875018 0.234375,1.828125 C0.390625781,1.4687482 0.605467383,1.15234512 0.87890625,0.87890625 C1.15234512,0.605467383 1.4687482,0.390625781 1.828125,0.234375 C2.1875018,0.0781242188 2.57812289,0 3,0 L27,0 C27.4218771,0 27.8124982,0.0781242188 28.171875,0.234375 C28.5312518,0.390625781 28.8476549,0.605467383 29.1210938,0.87890625 C29.3945326,1.15234512 29.6093742,1.4687482 29.765625,1.828125 C29.9218758,2.1875018 30,2.57812289 30,3 L30,21.2855991 Z M12.9457164,38 L13.5318877,39.0152784 C12.5772913,39.149171 11.6684162,39.4640594 10.8246512,39.9512074 C10.307018,40.2500631 9.83276785,40.6004672 9.40582197,41 L3,41 L3,38 L12.9457164,38 Z M3,7 L27,7 L27,10 L3,10 L3,7 Z" id="Combined-Shape"></path>
                <path d="M33.9836022,23.2302544 C34.5276695,22.916137 35.0966053,22.7236402 35.6904267,22.6527583 C36.2842482,22.5818764 36.860033,22.6211214 37.4177986,22.7704944 C37.9755641,22.9198675 38.4938414,23.1736191 38.972646,23.5317569 C39.4514506,23.8898947 39.8478637,24.3409179 40.1618973,24.88484 L46.1913115,35.3280917 C47.1255613,36.9462599 47.6954085,38.6478705 47.9008701,40.4329745 C48.1063317,42.2180785 47.9847814,43.947193 47.5362157,45.6203699 C47.08765,47.2935469 46.3278968,48.8517468 45.2569334,50.2950163 C44.18597,51.7382857 42.8412084,52.9271523 41.2226083,53.8616515 C39.2639662,54.9924741 37.222073,55.6727739 35.0968674,55.9025714 C32.9716619,56.1323689 30.8257391,55.9571418 28.6590345,55.3768849 L13.4707258,51.3093621 C12.8700552,51.1484988 12.322475,50.8754043 11.8279688,50.4900704 C11.3334625,50.1047365 10.933124,49.6469144 10.6269413,49.1165903 C10.2972061,48.5454722 10.0978771,47.9489341 10.0289483,47.3269582 C9.96001963,46.7049824 10.003191,46.1044151 10.1584637,45.5252385 C10.3137365,44.9460619 10.5787556,44.4077807 10.953529,43.9103787 C11.3283023,43.4129768 11.7945165,43.0032969 12.3521854,42.6813265 C12.8962527,42.3672092 13.473952,42.1741854 14.0853005,42.1022496 C14.696649,42.0303138 15.3094502,42.0708504 15.9237225,42.2238608 L19.3550587,43.1255505 L7.61418762,22.7897654 C7.30015406,22.2458433 7.10776309,21.6770279 7.03700895,21.083302 C6.96625481,20.4895762 7.0056381,19.9138591 7.15516001,19.3561334 C7.30468192,18.7984078 7.5585872,18.280141 7.91688347,17.8013175 C8.27517974,17.322494 8.72635475,16.9260295 9.27042201,16.6119121 C9.81448928,16.2977947 10.3834251,16.105298 10.9772465,16.0344161 C11.571068,15.9635341 12.1468528,16.0027791 12.7046184,16.1521522 C13.2623839,16.3015252 13.7806612,16.5552768 14.2594658,16.9134146 C14.7382704,17.2715524 15.1346835,17.7225756 15.4487171,18.2664977 L20.8539927,27.6287097 C21.216489,27.2199843 21.6085573,26.893906 22.0302094,26.650465 C22.7102935,26.2578183 23.4350082,26.052437 24.2043752,26.0343151 C24.9737422,26.0161931 25.7001043,26.1906005 26.3834833,26.5575424 C26.799288,25.864209 27.3404234,25.3251535 28.0069058,24.9403597 C28.6869899,24.547713 29.4117046,24.3423317 30.1810716,24.3242098 C30.9504386,24.3060878 31.6768007,24.4804951 32.3601797,24.847437 C32.7759844,24.1541037 33.3171198,23.6150482 33.9836022,23.2302544 Z M37.5503875,26.3925959 C37.3462656,26.0390465 37.0404104,25.8076967 36.6328125,25.6985395 C36.2252146,25.5893822 35.8445995,25.636891 35.4909558,25.8410673 C35.0284986,26.1080671 34.7800454,26.4237511 34.7455886,26.7881287 C34.7111318,27.1525063 34.7887746,27.5382777 34.9785194,27.9454545 C35.1682641,28.3526313 35.4062734,28.7727284 35.6925544,29.2057582 C35.9788355,29.6387881 36.2168448,30.0588851 36.4065895,30.4660619 C36.5963342,30.8732387 36.673977,31.2590102 36.6395202,31.6233878 C36.6050635,31.9877654 36.3566102,32.3034493 35.8941531,32.5704491 C35.3908908,32.8610077 34.9552076,32.8995166 34.5870901,32.685977 C34.2189727,32.4724374 33.8800023,32.1287607 33.5701687,31.6549367 C33.2603352,31.1811127 32.9716839,30.6497428 32.7042062,30.0608109 C32.4367285,29.471879 32.1480773,28.940509 31.8382437,28.466685 C31.5284101,27.992861 31.1894397,27.6491844 30.8213223,27.4356448 C30.4532049,27.2221052 30.0175216,27.2606141 29.5142594,27.5511727 C29.0518022,27.8181724 28.803349,28.1338564 28.7688922,28.498234 C28.7344354,28.8626116 28.8120782,29.248383 29.0018229,29.6555598 C29.1915677,30.0627367 29.429577,30.4828337 29.715858,30.9158635 C30.0021391,31.3488934 30.2401484,31.7689904 30.4298931,32.1761672 C30.6196378,32.5833441 30.6972806,32.9691155 30.6628238,33.3334931 C30.6283671,33.6978707 30.3799138,34.0135547 29.9174567,34.2805544 C29.4141944,34.571113 28.9785112,34.6096219 28.6103937,34.3960823 C28.2422763,34.1825427 27.9033059,33.8388661 27.5934723,33.365042 C27.2836388,32.891218 26.9949875,32.3598481 26.7275098,31.7709162 C26.4600321,31.1819843 26.1713808,30.6506144 25.8615473,30.1767904 C25.5517137,29.7029664 25.2127433,29.3592897 24.8446259,29.1457501 C24.4765085,28.9322105 24.0408252,28.9707194 23.537563,29.261278 C23.0751058,29.5282778 22.8266525,29.8439617 22.7921958,30.2083393 C22.757739,30.5727169 22.8353818,30.9584883 23.0251265,31.3656652 C23.2148712,31.772842 23.4528806,32.192939 23.7391616,32.6259689 C24.0254427,33.0589987 24.263452,33.4790957 24.4531967,33.8862726 C24.6429414,34.2934494 24.7205842,34.6792208 24.6861274,35.0435984 C24.6516707,35.407976 24.4032174,35.72366 23.9407603,35.9906598 C23.5871165,36.1948361 23.2065014,36.2423449 22.7989035,36.1331876 C22.3913056,36.0240304 22.0854504,35.7926806 21.8813286,35.4391312 L12.8372072,19.7742536 C12.6330854,19.4207042 12.3272302,19.1893544 11.9196323,19.0801972 C11.5120344,18.97104 11.1314193,19.0185488 10.7777756,19.2227251 C10.4241318,19.4269014 10.1926804,19.7327693 10.0834144,20.140338 C9.97414843,20.5479068 10.0215756,20.9284601 10.2256974,21.2820095 L22.5082737,42.5560555 C22.688843,42.8688107 22.7978645,43.1911395 22.8353416,43.5230514 C22.8728186,43.8549634 22.8518266,44.1798337 22.7723648,44.497672 C22.692903,44.8155103 22.5505235,45.1107461 22.345222,45.3833883 C22.1399205,45.6560304 21.887655,45.8787304 21.588418,46.051495 C21.289181,46.2242595 20.9687467,46.3367405 20.6271055,46.3889412 C20.2854644,46.441142 19.9430287,46.4212817 19.5997884,46.3293598 L15.1269602,45.1315088 C14.6764573,45.0108614 14.2539878,45.0644044 13.859539,45.2921395 C13.4650902,45.5198746 13.2040855,45.8609356 13.076517,46.3153328 C12.9489484,46.76973 13.0029259,47.2008929 13.2384511,47.6088344 C13.4661254,48.003178 13.805209,48.2606696 14.2557119,48.381317 L29.4557968,52.4692369 C31.2578085,52.9518267 33.0135533,53.1030293 34.7230838,52.9228492 C36.4326143,52.7426691 38.0966546,52.1853378 39.7152548,51.2508385 C40.9802111,50.5205156 42.0275898,49.5939956 42.857422,48.4712505 C43.6872543,47.3485055 44.2761246,46.1382588 44.6240506,44.8404741 C44.9719766,43.5426895 45.0674463,42.200307 44.9104626,40.8132866 C44.7534789,39.4262662 44.3099297,38.1004665 43.5798017,36.8358476 L37.5503875,26.3925959 Z" id="Combined-Shape"></path>
            </g>
        </g>
    </g>
</svg>