<?xml version="1.0" encoding="UTF-8"?>
<svg width="48px" height="48px" viewBox="0 0 48 48" version="1.1" xmlns="http://www.w3.org/2000/svg" xmlns:xlink="http://www.w3.org/1999/xlink">
    <!-- Generator: Sketch 52.6 (67491) - http://www.bohemiancoding.com/sketch -->
    <title></title>
    <desc>Created with Sketch.</desc>
    <g id="Symbols" stroke="none" stroke-width="1" fill="none" fill-rule="evenodd">
        <g id="Customer_Feedback" transform="translate(-16.000000, -16.000000)" fill="#B146C2">
            <g id="Group-6">
                <path d="M38.453125,47.125 C40.0312579,47.7500031 41.4687435,48.5820261 42.765625,49.6210938 C44.0625065,50.6601614 45.1718704,51.8515558 46.09375,53.1953125 C47.0156296,54.5390692 47.7304662,55.9999921 48.2382812,57.578125 C48.7460963,59.1562579 49,60.7968665 49,62.5 L49,64 L46,64 L46,62.5 C46,60.6406157 45.6445348,58.8906332 44.9335938,57.25 C44.2226527,55.6093668 43.2578186,54.1796936 42.0390625,52.9609375 C40.8203064,51.7421814 39.3906332,50.7773473 37.75,50.0664062 C36.1093668,49.3554652 34.3593843,49 32.5,49 C30.6406157,49 28.8906332,49.3554652 27.25,50.0664062 C25.6093668,50.7773473 24.1796936,51.7421814 22.9609375,52.9609375 C21.7421814,54.1796936 20.7773473,55.6093668 20.0664062,57.25 C19.3554652,58.8906332 19,60.6406157 19,62.5 L19,64 L16,64 L16,62.5 C16,60.7968665 16.2539037,59.1562579 16.7617188,57.578125 C17.2695338,55.9999921 17.9843704,54.5390692 18.90625,53.1953125 C19.8281296,51.8515558 20.9374935,50.6601614 22.234375,49.6210938 C23.5312565,48.5820261 24.9687421,47.7500031 26.546875,47.125 C25.8437465,46.6406226 25.2109403,46.0781282 24.6484375,45.4375 C24.0859347,44.7968718 23.609377,44.1054725 23.21875,43.3632812 C22.828123,42.62109 22.5273448,41.8398479 22.3164062,41.0195312 C22.1054677,40.1992146 22,39.3593793 22,38.5 C22,37.0468677 22.277341,35.6836001 22.8320312,34.4101562 C23.3867215,33.1367124 24.136714,32.0273485 25.0820312,31.0820312 C26.0273485,30.136714 27.1367124,29.3867215 28.4101562,28.8320312 C29.6836001,28.277341 31.0468677,28 32.5,28 C33.9531323,28 35.3163999,28.277341 36.5898438,28.8320312 C37.8632876,29.3867215 38.9726515,30.136714 39.9179688,31.0820312 C40.863286,32.0273485 41.6132785,33.1367124 42.1679688,34.4101562 C42.722659,35.6836001 43,37.0468677 43,38.5 C43,39.3593793 42.8945323,40.1992146 42.6835938,41.0195312 C42.4726552,41.8398479 42.171877,42.62109 41.78125,43.3632812 C41.390623,44.1054725 40.9140653,44.7968718 40.3515625,45.4375 C39.7890597,46.0781282 39.1562535,46.6406226 38.453125,47.125 Z M32.5,46 C33.5312552,46 34.4999955,45.8046895 35.40625,45.4140625 C36.3125045,45.0234355 37.1054654,44.4882846 37.7851562,43.8085938 C38.4648471,43.1289029 39.0039043,42.3320358 39.4023438,41.4179688 C39.8007832,40.5039017 40,39.5312552 40,38.5 C40,37.4687448 39.8007832,36.5000045 39.4023438,35.59375 C39.0039043,34.6874955 38.4648471,33.8945346 37.7851562,33.2148438 C37.1054654,32.5351529 36.3125045,31.9960957 35.40625,31.5976562 C34.4999955,31.1992168 33.5312552,31 32.5,31 C31.4687448,31 30.4960983,31.1992168 29.5820312,31.5976562 C28.6679642,31.9960957 27.8710971,32.5351529 27.1914062,33.2148438 C26.5117154,33.8945346 25.9765645,34.6874955 25.5859375,35.59375 C25.1953105,36.5000045 25,37.4687448 25,38.5 C25,39.5312552 25.1953105,40.5039017 25.5859375,41.4179688 C25.9765645,42.3320358 26.5117154,43.1289029 27.1914062,43.8085938 C27.8710971,44.4882846 28.6679642,45.0234355 29.5820312,45.4140625 C30.4960983,45.8046895 31.4687448,46 32.5,46 Z M64,16 L64,40 L58,40 L49,49 L49,40 L46,40 L46,37 L52,37 L52,41.7578125 L56.7578125,37 L61,37 L61,19 L31,19 L31,24.390625 C30.4999975,24.4531253 29.9960963,24.5351557 29.4882812,24.6367188 C28.9804662,24.7382818 28.4843774,24.8749991 28,25.046875 L28,16 L64,16 Z" id=""></path>
            </g>
        </g>
    </g>
</svg>