<?xml version="1.0" encoding="UTF-8"?>
<svg width="80px" height="80px" viewBox="0 0 80 80" version="1.1" xmlns="http://www.w3.org/2000/svg" xmlns:xlink="http://www.w3.org/1999/xlink">
    <!-- Generator: Sketch 51.2 (57519) - http://www.bohemiancoding.com/sketch -->
    <title>Networks</title>
    <desc>Created with Sketch.</desc>
    <defs></defs>
    <g id="Networks" stroke="none" stroke-width="1" fill="none" fill-rule="evenodd">
        <rect id="Rectangle-Copy" fill-rule="nonzero" x="0" y="0" width="80" height="80"></rect>
        <path d="M55,49 C55.8281291,49 56.6054651,49.1562484 57.3320312,49.46875 C58.0585974,49.7812516 58.6953098,50.2109348 59.2421875,50.7578125 C59.7890652,51.3046902 60.2187484,51.9414026 60.53125,52.6679688 C60.8437516,53.3945349 61,54.1718709 61,55 C61,55.8281291 60.8437516,56.6054651 60.53125,57.3320312 C60.2187484,58.0585974 59.7890652,58.6953098 59.2421875,59.2421875 C58.6953098,59.7890652 58.0585974,60.2187484 57.3320312,60.53125 C56.6054651,60.8437516 55.8281291,61 55,61 C54.1718709,61 53.3945349,60.8437516 52.6679688,60.53125 C51.9414026,60.2187484 51.3046902,59.7890652 50.7578125,59.2421875 C50.2109348,58.6953098 49.7812516,58.0585974 49.46875,57.3320312 C49.1562484,56.6054651 49,55.8281291 49,55 C49,53.8906195 49.2734348,52.8750046 49.8203125,51.953125 L43.046875,45.1796875 C42.1249954,45.7265652 41.1093805,46 40,46 C38.8906195,46 37.8750046,45.7265652 36.953125,45.1796875 L30.1796875,51.953125 C30.7265652,52.8750046 31,53.8906195 31,55 C31,55.8281291 30.8437516,56.6054651 30.53125,57.3320312 C30.2187484,58.0585974 29.7890652,58.6953098 29.2421875,59.2421875 C28.6953098,59.7890652 28.0585974,60.2187484 27.3320312,60.53125 C26.6054651,60.8437516 25.8281291,61 25,61 C24.1718709,61 23.3945349,60.8437516 22.6679688,60.53125 C21.9414026,60.2187484 21.3046902,59.7890652 20.7578125,59.2421875 C20.2109348,58.6953098 19.7812516,58.0585974 19.46875,57.3320312 C19.1562484,56.6054651 19,55.8281291 19,55 C19,54.1718709 19.1562484,53.3945349 19.46875,52.6679688 C19.7812516,51.9414026 20.2109348,51.3046902 20.7578125,50.7578125 C21.3046902,50.2109348 21.9414026,49.7812516 22.6679688,49.46875 C23.3945349,49.1562484 24.1718709,49 25,49 C26.1093805,49 27.1249954,49.2734348 28.046875,49.8203125 L34.8203125,43.046875 C34.2734348,42.1249954 34,41.1093805 34,40 C34,38.8906195 34.2734348,37.8750046 34.8203125,36.953125 L28.046875,30.1796875 C27.1249954,30.7265652 26.1093805,31 25,31 C24.1718709,31 23.3945349,30.8437516 22.6679688,30.53125 C21.9414026,30.2187484 21.3046902,29.7890652 20.7578125,29.2421875 C20.2109348,28.6953098 19.7812516,28.0585974 19.46875,27.3320312 C19.1562484,26.6054651 19,25.8281291 19,25 C19,24.1718709 19.1562484,23.3945349 19.46875,22.6679688 C19.7812516,21.9414026 20.2109348,21.3046902 20.7578125,20.7578125 C21.3046902,20.2109348 21.9414026,19.7812516 22.6679688,19.46875 C23.3945349,19.1562484 24.1718709,19 25,19 C25.8281291,19 26.6054651,19.1562484 27.3320312,19.46875 C28.0585974,19.7812516 28.6953098,20.2109348 29.2421875,20.7578125 C29.7890652,21.3046902 30.2187484,21.9414026 30.53125,22.6679688 C30.8437516,23.3945349 31,24.1718709 31,25 C31,26.1093805 30.7265652,27.1249954 30.1796875,28.046875 L36.953125,34.8203125 C37.8750046,34.2734348 38.8906195,34 40,34 C41.1093805,34 42.1249954,34.2734348 43.046875,34.8203125 L49.8203125,28.046875 C49.2734348,27.1249954 49,26.1093805 49,25 C49,24.1718709 49.1562484,23.3945349 49.46875,22.6679688 C49.7812516,21.9414026 50.2109348,21.3046902 50.7578125,20.7578125 C51.3046902,20.2109348 51.9414026,19.7812516 52.6679688,19.46875 C53.3945349,19.1562484 54.1718709,19 55,19 C55.8281291,19 56.6054651,19.1562484 57.3320312,19.46875 C58.0585974,19.7812516 58.6953098,20.2109348 59.2421875,20.7578125 C59.7890652,21.3046902 60.2187484,21.9414026 60.53125,22.6679688 C60.8437516,23.3945349 61,24.1718709 61,25 C61,25.8281291 60.8437516,26.6054651 60.53125,27.3320312 C60.2187484,28.0585974 59.7890652,28.6953098 59.2421875,29.2421875 C58.6953098,29.7890652 58.0585974,30.2187484 57.3320312,30.53125 C56.6054651,30.8437516 55.8281291,31 55,31 C53.8906195,31 52.8750046,30.7265652 51.953125,30.1796875 L45.1796875,36.953125 C45.7265652,37.8750046 46,38.8906195 46,40 C46,41.1093805 45.7265652,42.1249954 45.1796875,43.046875 L51.953125,49.8203125 C52.8750046,49.2734348 53.8906195,49 55,49 Z M55,22 C54.5781229,22 54.1875018,22.0781242 53.828125,22.234375 C53.4687482,22.3906258 53.1523451,22.6054674 52.8789062,22.8789062 C52.6054674,23.1523451 52.3906258,23.4687482 52.234375,23.828125 C52.0781242,24.1875018 52,24.5781229 52,25 C52,25.4218771 52.0781242,25.8124982 52.234375,26.171875 C52.3906258,26.5312518 52.6054674,26.8476549 52.8789062,27.1210938 C53.1523451,27.3945326 53.4687482,27.6093742 53.828125,27.765625 C54.1875018,27.9218758 54.5781229,28 55,28 C55.4218771,28 55.8124982,27.9218758 56.171875,27.765625 C56.5312518,27.6093742 56.8476549,27.3945326 57.1210938,27.1210938 C57.3945326,26.8476549 57.6093742,26.5312518 57.765625,26.171875 C57.9218758,25.8124982 58,25.4218771 58,25 C58,24.5781229 57.9218758,24.1875018 57.765625,23.828125 C57.6093742,23.4687482 57.3945326,23.1523451 57.1210938,22.8789062 C56.8476549,22.6054674 56.5312518,22.3906258 56.171875,22.234375 C55.8124982,22.0781242 55.4218771,22 55,22 Z M22,25 C22,25.4218771 22.0781242,25.8124982 22.234375,26.171875 C22.3906258,26.5312518 22.6054674,26.8476549 22.8789062,27.1210938 C23.1523451,27.3945326 23.4687482,27.6093742 23.828125,27.765625 C24.1875018,27.9218758 24.5781229,28 25,28 C25.4218771,28 25.8124982,27.9218758 26.171875,27.765625 C26.5312518,27.6093742 26.8476549,27.3945326 27.1210938,27.1210938 C27.3945326,26.8476549 27.6093742,26.5312518 27.765625,26.171875 C27.9218758,25.8124982 28,25.4218771 28,25 C28,24.5781229 27.9218758,24.1875018 27.765625,23.828125 C27.6093742,23.4687482 27.3945326,23.1523451 27.1210938,22.8789062 C26.8476549,22.6054674 26.5312518,22.3906258 26.171875,22.234375 C25.8124982,22.0781242 25.4218771,22 25,22 C24.5781229,22 24.1875018,22.0781242 23.828125,22.234375 C23.4687482,22.3906258 23.1523451,22.6054674 22.8789062,22.8789062 C22.6054674,23.1523451 22.3906258,23.4687482 22.234375,23.828125 C22.0781242,24.1875018 22,24.5781229 22,25 Z M25,58 C25.4218771,58 25.8124982,57.9218758 26.171875,57.765625 C26.5312518,57.6093742 26.8476549,57.3945326 27.1210938,57.1210938 C27.3945326,56.8476549 27.6093742,56.5312518 27.765625,56.171875 C27.9218758,55.8124982 28,55.4218771 28,55 C28,54.5781229 27.9218758,54.1875018 27.765625,53.828125 C27.6093742,53.4687482 27.3945326,53.1523451 27.1210938,52.8789062 C26.8476549,52.6054674 26.5312518,52.3906258 26.171875,52.234375 C25.8124982,52.0781242 25.4218771,52 25,52 C24.5781229,52 24.1875018,52.0781242 23.828125,52.234375 C23.4687482,52.3906258 23.1523451,52.6054674 22.8789062,52.8789062 C22.6054674,53.1523451 22.3906258,53.4687482 22.234375,53.828125 C22.0781242,54.1875018 22,54.5781229 22,55 C22,55.4218771 22.0781242,55.8124982 22.234375,56.171875 C22.3906258,56.5312518 22.6054674,56.8476549 22.8789062,57.1210938 C23.1523451,57.3945326 23.4687482,57.6093742 23.828125,57.765625 C24.1875018,57.9218758 24.5781229,58 25,58 Z M40,43 C40.4218771,43 40.8124982,42.9218758 41.171875,42.765625 C41.5312518,42.6093742 41.8476549,42.3945326 42.1210938,42.1210938 C42.3945326,41.8476549 42.6093742,41.5312518 42.765625,41.171875 C42.9218758,40.8124982 43,40.4218771 43,40 C43,39.5781229 42.9218758,39.1875018 42.765625,38.828125 C42.6093742,38.4687482 42.3945326,38.1523451 42.1210938,37.8789062 C41.8476549,37.6054674 41.5312518,37.3906258 41.171875,37.234375 C40.8124982,37.0781242 40.4218771,37 40,37 C39.5781229,37 39.1875018,37.0781242 38.828125,37.234375 C38.4687482,37.3906258 38.1523451,37.6054674 37.8789062,37.8789062 C37.6054674,38.1523451 37.3906258,38.4687482 37.234375,38.828125 C37.0781242,39.1875018 37,39.5781229 37,40 C37,40.4218771 37.0781242,40.8124982 37.234375,41.171875 C37.3906258,41.5312518 37.6054674,41.8476549 37.8789062,42.1210938 C38.1523451,42.3945326 38.4687482,42.6093742 38.828125,42.765625 C39.1875018,42.9218758 39.5781229,43 40,43 Z M55,58 C55.4218771,58 55.8124982,57.9218758 56.171875,57.765625 C56.5312518,57.6093742 56.8476549,57.3945326 57.1210938,57.1210938 C57.3945326,56.8476549 57.6093742,56.5312518 57.765625,56.171875 C57.9218758,55.8124982 58,55.4218771 58,55 C58,54.5781229 57.9218758,54.1875018 57.765625,53.828125 C57.6093742,53.4687482 57.3945326,53.1523451 57.1210938,52.8789062 C56.8476549,52.6054674 56.5312518,52.3906258 56.171875,52.234375 C55.8124982,52.0781242 55.4218771,52 55,52 C54.5781229,52 54.1875018,52.0781242 53.828125,52.234375 C53.4687482,52.3906258 53.1523451,52.6054674 52.8789062,52.8789062 C52.6054674,53.1523451 52.3906258,53.4687482 52.234375,53.828125 C52.0781242,54.1875018 52,54.5781229 52,55 C52,55.4218771 52.0781242,55.8124982 52.234375,56.171875 C52.3906258,56.5312518 52.6054674,56.8476549 52.8789062,57.1210938 C53.1523451,57.3945326 53.4687482,57.6093742 53.828125,57.765625 C54.1875018,57.9218758 54.5781229,58 55,58 Z" id="" fill="#886CE4"></path>
    </g>
</svg>