<?xml version="1.0" encoding="UTF-8"?>
<svg width="121px" height="40px" viewBox="0 0 121 40" version="1.1" xmlns="http://www.w3.org/2000/svg" xmlns:xlink="http://www.w3.org/1999/xlink">
    <!-- Generator: Sketch 50.2 (55047) - http://www.bohemiancoding.com/sketch -->
    <title>Group 3</title>
    <desc>Created with Sketch.</desc>
    <defs></defs>
    <g id="Hifi-6.27-Expert" stroke="none" stroke-width="1" fill="none" fill-rule="evenodd">
        <g id="Expert_List" transform="translate(-20.000000, -10.000000)" fill="#4F6BED">
            <g id="Header_hifi">
                <g id="Group-3" transform="translate(20.000000, 10.000000)">
                    <g id="Logo3_by_Cuiting" fill-rule="nonzero">
                        <path d="M12.8574317,9.37931034 C12.3073812,9.37931034 11.8948433,9.86206897 11.8948433,10.4137931 L11.9635996,15.7241379 L8.4570273,12.2068966 C8.04448938,11.7931034 7.42568251,11.7931034 7.08190091,12.2068966 C6.66936299,12.6206897 6.66936299,13.2413793 7.08190091,13.5862069 L12.0323559,18.5517241 L12.1011122,22.8965517 L5.36299292,16 C4.95045501,15.5862069 4.33164813,15.5862069 3.98786653,16 C3.57532861,16.4137931 3.57532861,17.0344828 3.98786653,17.3793103 L12.1698686,25.7241379 L12.3761375,38.5517241 C12.3761375,39.1034483 12.8574317,39.5172414 13.4074823,39.5172414 C13.9575329,39.5172414 14.3700708,39.0344828 14.3700708,38.4827586 L13.8887765,10.3448276 C13.8887765,9.79310345 13.4074823,9.37931034 12.8574317,9.37931034 Z" id="XMLID_524_"></path>
                        <path d="M25.1648129,19.1034483 L19.7330637,24.4137931 L19.7330637,28.137931 C19.7330637,28.6896552 20.1456016,29.1034483 20.6956522,29.1034483 C21.2457027,29.1034483 21.6582406,28.6896552 21.6582406,28.137931 L21.6582406,25.2413793 L26.471183,20.4827586 C26.8837209,20.0689655 26.8837209,19.4482759 26.471183,19.1034483 C26.1961577,18.6896552 25.5773509,18.6896552 25.1648129,19.1034483 Z" id="XMLID_525_"></path>
                        <path d="M26.7462083,8.96551724 C25.1648129,8.96551724 23.9271992,10.2758621 23.9271992,11.7931034 C23.9271992,12.2758621 24.0647118,12.6896552 24.2709808,13.1034483 L18.0141557,19.1034483 L18.0141557,14.8965517 C18.0141557,14.8965517 18.0141557,14.8965517 18.082912,14.8965517 L21.8645096,11.0344828 C22.2770475,10.6206897 22.2082912,10 21.8645096,9.65517241 C21.4519717,9.24137931 20.8331648,9.31034483 20.4893832,9.65517241 L18.082912,12.137931 L18.082912,6 C19.1830131,5.5862069 19.9393327,4.55172414 19.9393327,3.31034483 C19.9393327,1.72413793 18.6329626,0.482758621 17.1203236,0.482758621 C15.5389282,0.482758621 14.3013145,1.79310345 14.3013145,3.31034483 C14.3013145,4.55172414 15.057634,5.5862069 16.1577351,6 L16.1577351,33.2413793 C16.1577351,33.7931034 16.570273,34.2068966 17.1203236,34.2068966 C17.6703741,34.2068966 18.082912,33.7931034 18.082912,33.2413793 L18.082912,21.862069 L25.6461072,14.4827586 C25.9898888,14.6206897 26.3336704,14.6896552 26.677452,14.6896552 C28.2588473,14.6896552 29.4964611,13.3793103 29.4964611,11.862069 C29.5652174,10.2758621 28.2588473,8.96551724 26.7462083,8.96551724 Z M16.9828109,2.4137931 C17.4641052,2.4137931 17.8766431,2.82758621 17.8766431,3.31034483 C17.8766431,3.79310345 17.4641052,4.20689655 16.9828109,4.20689655 C16.5015167,4.20689655 16.0889788,3.79310345 16.0889788,3.31034483 C16.0889788,2.82758621 16.5015167,2.4137931 16.9828109,2.4137931 Z M26.7462083,12.6896552 C26.2649141,12.6896552 25.8523761,12.2758621 25.8523761,11.7931034 C25.8523761,11.3103448 26.2649141,10.8965517 26.7462083,10.8965517 C27.2275025,10.8965517 27.6400404,11.3103448 27.6400404,11.7931034 C27.5712841,12.2758621 27.2275025,12.6896552 26.7462083,12.6896552 Z" id="XMLID_528_"></path>
                        <path d="M5.77553084,22.3448276 C5.77553084,20.7586207 4.46916077,19.5172414 2.95652174,19.5172414 C1.37512639,19.5172414 0.137512639,20.8275862 0.137512639,22.3448276 C0.137512639,23.9310345 1.44388271,25.1724138 2.95652174,25.1724138 C3.43781598,25.1724138 3.85035389,25.0344828 4.26289181,24.8275862 L8.38827098,28.6896552 L8.38827098,33.5172414 C8.38827098,34.0689655 8.8008089,34.4827586 9.35085945,34.4827586 C9.90091001,34.4827586 10.3134479,34.0689655 10.3134479,33.5172414 L10.3134479,27.7931034 L5.56926188,23.3103448 C5.70677452,23.0344828 5.77553084,22.6896552 5.77553084,22.3448276 Z M2.06268959,22.3448276 C2.06268959,21.862069 2.4752275,21.4482759 2.95652174,21.4482759 C3.43781598,21.4482759 3.85035389,21.862069 3.85035389,22.3448276 C3.85035389,22.8275862 3.43781598,23.2413793 2.95652174,23.2413793 C2.4752275,23.1724138 2.06268959,22.8275862 2.06268959,22.3448276 Z" id="XMLID_532_"></path>
                    </g>
                    <text id="Data" font-family="SegoeUI-Semilight, Segoe UI" font-size="22" font-weight="300">
                        <tspan x="37" y="29">Data</tspan>
                    </text>
                    <text id="Zen" font-family="SegoeUI-Semibold, Segoe UI" font-size="22" font-weight="500">
                        <tspan x="82" y="29">ZEN</tspan>
                    </text>
                </g>
            </g>
        </g>
    </g>
</svg>